<?xml version="1.0" standalone="no"?>
<!DOCTYPE svg PUBLIC "-//W3C//DTD SVG 20010904//EN"
 "http://www.w3.org/TR/2001/REC-SVG-20010904/DTD/svg10.dtd">
<svg version="1.0" xmlns="http://www.w3.org/2000/svg"
 width="512.000000pt" height="512.000000pt" viewBox="0 0 512.000000 512.000000"
 preserveAspectRatio="xMidYMid meet">

<g transform="translate(0.000000,512.000000) scale(0.100000,-0.100000)"
fill="#000000" stroke="none">
<path d="M4050 4969 c-960 -84 -1477 -491 -1447 -1139 6 -114 23 -219 53 -315
l16 -51 -45 -89 c-24 -50 -61 -134 -82 -187 l-38 -97 -40 67 c-50 83 -102 154
-176 240 l-58 67 -6 110 c-7 130 -25 202 -77 310 -82 171 -231 291 -434 349
-206 60 -437 58 -766 -5 -116 -23 -147 -37 -156 -73 -14 -56 142 -401 265
-588 262 -397 576 -522 900 -358 42 21 103 59 136 85 l60 47 48 -54 c64 -71
156 -210 205 -311 l41 -82 -19 -85 c-11 -47 -25 -124 -31 -172 l-13 -88 -718
0 c-798 0 -765 3 -794 -65 -21 -51 -20 -434 1 -475 26 -51 50 -60 156 -60 l96
0 82 -457 c45 -252 117 -649 159 -882 56 -315 81 -429 95 -447 l18 -24 933 0
933 0 20 23 c17 18 46 168 177 897 86 481 156 878 156 883 0 4 44 7 98 7 166
0 172 11 172 300 0 169 -3 217 -15 240 -32 62 -8 60 -751 60 l-677 0 7 58 c18
154 73 362 142 536 32 78 89 203 100 215 1 2 41 -13 88 -33 198 -85 452 -119
609 -81 335 81 578 379 731 895 55 188 104 471 121 698 7 88 6 95 -16 118 -20
21 -30 24 -93 23 -39 -1 -114 -5 -166 -10z m128 -211 c-31 -333 -124 -691
-239 -922 -219 -439 -543 -569 -986 -396 -117 45 -113 37 -57 121 114 173 313
389 467 509 63 49 78 80 56 119 -11 20 -24 27 -52 29 -32 3 -46 -3 -90 -40
-178 -146 -319 -294 -444 -466 -40 -53 -63 -77 -66 -68 -31 81 -32 336 -2 451
87 327 384 556 865 669 149 35 383 68 526 75 l30 1 -8 -82z m-2548 -643 c184
-42 326 -146 395 -290 32 -66 72 -211 62 -222 -3 -2 -17 7 -33 20 -60 51 -208
140 -319 193 -128 62 -157 63 -184 9 -23 -48 -2 -70 144 -144 72 -36 157 -85
190 -107 88 -61 165 -123 165 -134 0 -14 -112 -87 -188 -123 -86 -40 -209 -49
-297 -21 -130 40 -264 159 -386 342 -67 100 -164 285 -208 399 l-20 52 47 9
c26 6 83 15 127 21 44 6 94 13 110 15 69 10 323 -2 395 -19z m2200 -1865 l0
-160 -1415 0 -1415 0 0 160 0 160 1415 0 1415 0 0 -160z m-270 -312 c0 -7 -67
-382 -148 -833 l-148 -820 -846 -3 c-800 -2 -847 -1 -852 15 -4 14 -124 677
-292 1621 l-6 32 1146 0 c910 0 1146 -3 1146 -12z"/>
</g>
</svg>
