<?xml version="1.0" standalone="no"?>
<!DOCTYPE svg PUBLIC "-//W3C//DTD SVG 20010904//EN"
 "http://www.w3.org/TR/2001/REC-SVG-20010904/DTD/svg10.dtd">
<svg version="1.0" xmlns="http://www.w3.org/2000/svg"
 width="500.000000pt" height="500.000000pt" viewBox="0 0 500.000000 500.000000"
 preserveAspectRatio="xMidYMid meet">
<metadata>
Created by potrace 1.14, written by Peter Selinger 2001-2017
</metadata>
<g transform="translate(0.000000,500.000000) scale(0.100000,-0.100000)"
fill="#000000" stroke="none">
<path d="M910 4543 c-50 -6 -156 -37 -180 -51 -112 -67 -154 -103 -205 -177
-94 -137 -124 -315 -79 -469 45 -155 190 -309 335 -355 33 -11 37 -16 41 -51
3 -32 2 -311 -1 -387 -1 -16 -12 -25 -50 -38 -56 -18 -152 -82 -194 -129 -210
-230 -199 -568 26 -771 131 -119 294 -162 484 -130 l43 8 418 -421 417 -421
-2 -104 c-4 -160 39 -274 145 -389 183 -197 502 -219 724 -50 74 56 149 160
177 243 l11 35 243 -1 c133 -1 244 -3 248 -4 3 0 13 -23 23 -51 22 -61 84
-150 139 -201 136 -124 366 -170 539 -106 149 54 242 140 312 287 43 91 54
143 50 247 -13 394 -436 634 -796 451 -108 -55 -209 -174 -257 -301 -12 -31 9
-29 -261 -29 -260 1 -250 0 -250 18 0 39 -67 150 -130 214 -102 105 -233 160
-380 160 -134 0 -248 -40 -353 -123 l-39 -30 -74 74 c-62 61 -651 651 -663
664 -2 2 13 26 33 53 100 137 129 315 76 474 -21 61 -68 147 -96 175 -7 8 -19
22 -26 31 -24 33 -98 85 -170 121 l-73 36 0 219 0 218 49 20 c72 28 166 94
206 144 19 24 40 50 46 57 41 47 89 194 93 283 8 173 -87 363 -230 461 -106
73 -252 111 -369 96z m170 -323 c48 -24 81 -56 108 -105 26 -45 24 -199 -2
-240 -94 -144 -288 -165 -403 -44 -55 58 -75 148 -53 239 34 142 214 219 350
150z m-30 -1472 c46 -14 114 -70 135 -111 23 -42 31 -163 15 -211 -53 -161
-281 -208 -410 -85 -44 42 -59 75 -66 148 -14 133 55 232 186 267 47 13 81 11
140 -8z m1575 -1502 c59 -35 92 -77 111 -143 40 -137 -37 -274 -173 -308 -122
-31 -233 20 -293 134 -19 36 -21 144 -4 194 18 53 87 123 140 143 58 22 164
12 219 -20z m1522 10 c80 -41 133 -131 133 -227 0 -92 -64 -192 -143 -224 -60
-25 -162 -23 -213 3 -117 60 -169 206 -115 327 33 74 73 111 151 136 38 13
151 4 187 -15z"/>
<path d="M2410 4534 c-263 -51 -452 -274 -451 -534 0 -119 28 -213 90 -304
158 -229 444 -302 699 -178 86 41 191 150 235 242 97 203 65 441 -80 600 -103
114 -225 170 -378 176 -49 1 -101 0 -115 -2z m177 -305 c66 -28 99 -57 129
-112 57 -105 29 -241 -62 -311 -179 -137 -425 0 -400 222 11 99 88 190 174
208 8 1 16 5 18 7 12 11 103 2 141 -14z"/>
<path d="M3914 4526 c-193 -37 -370 -213 -414 -411 -14 -61 -11 -186 5 -240 6
-22 9 -47 7 -55 -7 -20 -790 -800 -803 -800 -6 0 -34 7 -62 15 -220 63 -464
-26 -595 -217 -113 -165 -125 -360 -33 -547 88 -181 274 -295 477 -294 209 1
391 115 483 302 22 46 45 106 50 134 21 116 -4 270 -60 365 -10 18 -19 39 -19
47 0 13 701 717 732 736 7 5 26 0 43 -11 181 -112 366 -122 555 -32 33 15 84
55 126 97 144 142 198 329 149 515 -20 77 -57 156 -92 196 -14 16 -32 38 -42
49 -42 52 -132 108 -226 140 -62 21 -199 26 -281 11z m233 -304 c188 -96 168
-398 -31 -457 -175 -52 -327 51 -330 225 -1 113 43 189 139 238 53 28 162 24
222 -6z m-1518 -1491 c103 -53 146 -197 95 -319 -61 -147 -273 -189 -392 -78
-123 114 -98 333 45 402 76 36 174 34 252 -5z"/>
<path d="M3955 3049 c-125 -15 -259 -91 -341 -193 -136 -169 -160 -383 -64
-581 127 -264 444 -374 714 -247 332 157 410 608 149 869 -119 120 -279 173
-458 152z m142 -293 c133 -26 215 -184 169 -324 -56 -167 -285 -220 -412 -94
-136 135 -63 385 122 420 45 9 61 9 121 -2z"/>
<path d="M822 1550 c-81 -21 -116 -38 -182 -89 -88 -67 -158 -167 -191 -270
-29 -93 -30 -243 0 -325 68 -192 214 -320 414 -363 65 -14 92 -15 160 -6 177
23 305 102 397 244 139 216 106 500 -81 681 -135 130 -327 178 -517 128z m229
-284 c56 -20 103 -61 133 -116 35 -64 38 -167 8 -227 -91 -176 -339 -186 -438
-17 -37 63 -44 161 -16 224 53 121 190 180 313 136z"/>
</g>
</svg>
