<?xml version="1.0" standalone="no"?>
<!DOCTYPE svg PUBLIC "-//W3C//DTD SVG 20010904//EN"
 "http://www.w3.org/TR/2001/REC-SVG-20010904/DTD/svg10.dtd">
<svg version="1.0" xmlns="http://www.w3.org/2000/svg"
 width="512.000000pt" height="512.000000pt" viewBox="0 0 512.000000 512.000000"
 preserveAspectRatio="xMidYMid meet">

<g transform="translate(0.000000,512.000000) scale(0.100000,-0.100000)"
fill="#000000" stroke="none">
<path d="M2663 3625 c-60 -26 -58 3 -63 -770 l-5 -709 -110 141 c-155 200
-179 208 -302 97 -100 -88 -101 -85 115 -361 317 -406 392 -500 408 -514 28
-23 91 -17 118 11 14 14 149 184 300 378 248 318 276 357 276 391 0 30 -7 44
-37 72 -55 52 -104 87 -133 94 -44 10 -84 -25 -202 -175 l-113 -145 -5 725
c-3 399 -9 731 -14 739 -25 38 -167 55 -233 26z"/>
<path d="M3565 3629 c-53 -15 -65 -43 -65 -150 0 -91 1 -98 26 -123 l27 -26
553 0 c305 0 554 -3 554 -7 0 -5 -268 -367 -595 -807 -327 -439 -596 -806
-597 -815 -5 -54 43 -167 84 -195 20 -14 104 -16 745 -16 l722 0 28 24 c27 24
28 27 28 125 0 97 -1 102 -28 128 l-27 28 -549 5 -549 5 595 798 c407 547 596
809 600 831 4 23 -5 50 -34 106 -32 63 -44 77 -73 87 -42 14 -1397 17 -1445 2z"/>
<path d="M975 3581 c-11 -5 -27 -17 -36 -27 -18 -21 -916 -1901 -932 -1951
-13 -40 4 -85 40 -104 38 -21 201 -19 234 2 17 11 62 96 148 278 l125 261 515
-2 515 -3 121 -253 c67 -140 132 -263 144 -275 19 -20 32 -22 125 -22 96 0
106 2 130 24 55 52 76 1 -434 1059 -259 537 -480 986 -491 997 -16 16 -35 20
-102 22 -45 2 -91 -1 -102 -6z m273 -851 l181 -375 -179 -3 c-98 -1 -261 -1
-362 0 l-184 3 180 377 c99 208 181 376 182 375 1 -1 83 -171 182 -377z"/>
</g>
</svg>
