<?xml version="1.0" standalone="no"?>
<!DOCTYPE svg PUBLIC "-//W3C//DTD SVG 20010904//EN"
 "http://www.w3.org/TR/2001/REC-SVG-20010904/DTD/svg10.dtd">
<svg version="1.0" xmlns="http://www.w3.org/2000/svg"
 width="512.000000pt" height="512.000000pt" viewBox="0 0 512.000000 512.000000"
 preserveAspectRatio="xMidYMid meet">

<g transform="translate(0.000000,512.000000) scale(0.100000,-0.100000)"
fill="#000000" stroke="none">
<path d="M1353 4610 c-41 -24 -53 -67 -53 -187 l0 -93 -374 0 -373 0 -26 -24
c-14 -13 -29 -35 -32 -48 -3 -12 -4 -852 -3 -1865 l3 -1843 28 -27 27 -28
2010 0 2010 0 27 28 28 27 3 1843 c1 1013 0 1853 -3 1865 -3 13 -18 35 -32 48
l-26 24 -373 0 -374 0 0 93 c0 120 -12 163 -53 187 -38 24 -59 25 -96 6 -41
-22 -51 -55 -51 -176 l0 -110 -479 0 -479 0 -4 120 c-3 115 -4 121 -31 147
-20 21 -37 28 -67 28 -30 0 -47 -7 -67 -28 -27 -26 -28 -32 -31 -147 l-4 -120
-479 0 -479 0 0 110 c0 127 -12 162 -61 179 -43 15 -49 14 -86 -9z m-51 -584
c3 -98 6 -119 24 -143 37 -50 94 -55 145 -14 22 18 24 28 29 143 l5 123 478 3
477 2 0 -116 0 -116 34 -34 c24 -25 43 -34 66 -34 23 0 42 9 66 34 l34 34 0
116 0 116 478 -2 477 -3 5 -123 c5 -115 7 -125 29 -143 51 -41 108 -36 145 14
18 24 21 45 24 143 l4 114 304 0 304 0 0 -300 0 -300 -1870 0 -1870 0 0 300 0
300 304 0 304 0 4 -114z m3128 -2006 l0 -1330 -1870 0 -1870 0 0 1330 0 1330
1870 0 1870 0 0 -1330z"/>
<path d="M2433 3020 c-287 -40 -546 -198 -702 -428 -399 -589 -101 -1371 592
-1555 116 -30 366 -30 479 1 189 52 333 135 469 271 349 348 396 870 116 1286
-53 78 -175 200 -255 254 -201 135 -476 203 -699 171z m347 -220 c135 -39 244
-103 346 -205 158 -156 233 -322 242 -536 8 -187 -32 -335 -129 -485 -279
-427 -885 -491 -1250 -132 -71 70 -146 182 -182 271 -69 172 -76 385 -18 557
99 294 332 492 651 554 61 12 266 -3 340 -24z"/>
<path d="M2493 2506 l-28 -24 -3 -323 -3 -322 -98 97 c-83 81 -103 96 -131 96
-45 0 -100 -55 -100 -101 0 -29 21 -54 195 -228 257 -259 213 -259 470 0 174
174 195 199 195 228 0 46 -55 101 -100 101 -28 0 -48 -15 -131 -96 l-98 -97
-3 322 -3 323 -28 24 c-19 16 -40 24 -67 24 -27 0 -48 -8 -67 -24z"/>
</g>
</svg>
